<svg width="192" height="64" viewBox="0 0 192 64" fill="none" xmlns="http://www.w3.org/2000/svg">
  <path
    d="M48.5 11H15.5C13.9092 11.0017 12.3841 11.6344 11.2593 12.7593C10.1344 13.8841 9.50174 15.4092 9.5 17V47C9.50174 48.5908 10.1344 50.1159 11.2593 51.2407C12.3841 52.3656 13.9092 52.9983 15.5 53H48.5C50.0908 52.9983 51.6159 52.3656 52.7407 51.2407C53.8656 50.1159 54.4983 48.5908 54.5 47V17C54.4983 15.4092 53.8656 13.8841 52.7407 12.7593C51.6159 11.6344 50.0908 11.0017 48.5 11V11ZM17 32C16.6892 32 16.3861 31.9035 16.1326 31.7238C15.879 31.544 15.6876 31.29 15.5847 30.9968C15.4817 30.7036 15.4724 30.3856 15.558 30.0868C15.6436 29.7881 15.8199 29.5233 16.0625 29.3291L22.0991 24.5L16.0625 19.6709C15.9086 19.5478 15.7805 19.3956 15.6854 19.223C15.5903 19.0503 15.5302 18.8607 15.5084 18.6648C15.4867 18.4689 15.5037 18.2707 15.5586 18.0814C15.6134 17.8921 15.705 17.7155 15.8281 17.5616C15.9512 17.4077 16.1035 17.2795 16.2761 17.1845C16.4487 17.0894 16.6384 17.0293 16.8343 17.0075C17.0301 16.9857 17.2284 17.0028 17.4177 17.0576C17.607 17.1125 17.7836 17.2041 17.9375 17.3272L25.4375 23.3272C25.6134 23.4677 25.7554 23.646 25.8529 23.8489C25.9505 24.0517 26.0012 24.274 26.0012 24.4991C26.0012 24.7242 25.9505 24.9464 25.8529 25.1493C25.7554 25.3521 25.6134 25.5304 25.4375 25.6709L17.9375 31.6709C17.6715 31.8839 17.3408 32 17 32ZM32 32H26C25.6022 32 25.2206 31.842 24.9393 31.5607C24.658 31.2794 24.5 30.8978 24.5 30.5C24.5 30.1022 24.658 29.7206 24.9393 29.4393C25.2206 29.158 25.6022 29 26 29H32C32.3978 29 32.7794 29.158 33.0607 29.4393C33.342 29.7206 33.5 30.1022 33.5 30.5C33.5 30.8978 33.342 31.2794 33.0607 31.5607C32.7794 31.842 32.3978 32 32 32Z"
    fill="url(#paint_icon)"/>
  <defs>
    <linearGradient id="paint_icon" x1="8" y1="32" x2="56" y2="32" gradientUnits="userSpaceOnUse">
      <stop stop-color="#268bd2"/>
      <stop offset="1" stop-color="#2aa198"/>
    </linearGradient>
  </defs>
</svg>
