<svg width="192" height="64" viewBox="0 0 192 64" fill="none" xmlns="http://www.w3.org/2000/svg">
  <path
    d="M10.2656 41.6055L18.5156 21.4844H16.5586L8.32031 41.6055H10.2656ZM72.7734 33.0977C73.7461 33.0977 74.4961 32.3125 74.4961 31.3398C74.4961 30.332 73.7461 29.582 72.7734 29.582C71.8008 29.582 71.0391 30.332 71.0391 31.3398C71.0391 32.3125 71.8008 33.0977 72.7734 33.0977ZM117.281 33.0977C118.254 33.0977 119.004 32.3125 119.004 31.3398C119.004 30.332 118.254 29.582 117.281 29.582C116.309 29.582 115.547 30.332 115.547 31.3398C115.547 32.3125 116.309 33.0977 117.281 33.0977ZM173.461 41.6055L181.711 21.4844H179.754L171.516 41.6055H173.461Z"
    fill="#7F7F7F"/>
  <path
    d="M23.2617 30.8008C23.2617 32.7109 24.457 33.9297 26.8242 34.457L28.7461 34.8789C30.2109 35.1953 30.75 35.6289 30.75 36.4727C30.75 37.4688 29.8125 38.125 28.3242 38.125C26.8711 38.125 25.8984 37.5508 25.6641 36.543H22.957C23.1445 38.8633 25.1367 40.2578 28.2773 40.2578C31.5 40.2578 33.5508 38.6523 33.5508 36.1562C33.5508 34.2344 32.4141 33.1445 29.8477 32.5938L27.9375 32.1836C26.543 31.8789 25.957 31.4102 25.957 30.5898C25.957 29.6289 26.8594 28.9961 28.2305 28.9961C29.5547 28.9961 30.4805 29.5938 30.668 30.5547H33.2461C33.0703 28.2461 31.207 26.8867 28.2656 26.8867C25.2305 26.8867 23.2617 28.4102 23.2617 30.8008ZM46.1367 36.5195C45.8672 37.4688 44.7773 38.0898 43.3594 38.0898C41.4961 38.0898 40.2891 36.8242 40.2891 34.8672V34.2461H48.75V32.6875C48.75 29.125 46.6523 26.9102 43.2773 26.9102C39.8672 26.9102 37.6055 29.1367 37.6055 32.5V34.5039C37.6055 38.1602 39.7148 40.2578 43.3711 40.2578C46.2422 40.2578 48.4219 38.7227 48.7266 36.5195H46.1367ZM43.2305 29.0664C45.0234 29.0664 46.1016 30.332 46.1016 32.418H40.2891C40.2891 30.3203 41.3906 29.0664 43.2305 29.0664ZM60.9727 36.5195C60.7031 37.4688 59.6133 38.0898 58.1953 38.0898C56.332 38.0898 55.125 36.8242 55.125 34.8672V34.2461H63.5859V32.6875C63.5859 29.125 61.4883 26.9102 58.1133 26.9102C54.7031 26.9102 52.4414 29.1367 52.4414 32.5V34.5039C52.4414 38.1602 54.5508 40.2578 58.207 40.2578C61.0781 40.2578 63.2578 38.7227 63.5625 36.5195H60.9727ZM58.0664 29.0664C59.8594 29.0664 60.9375 30.332 60.9375 32.418H55.125C55.125 30.3203 56.2266 29.0664 58.0664 29.0664ZM90.6445 36.5195C90.375 37.4688 89.2852 38.0898 87.8672 38.0898C86.0039 38.0898 84.7969 36.8242 84.7969 34.8672V34.2461H93.2578V32.6875C93.2578 29.125 91.1602 26.9102 87.7852 26.9102C84.375 26.9102 82.1133 29.1367 82.1133 32.5V34.5039C82.1133 38.1602 84.2227 40.2578 87.8789 40.2578C90.75 40.2578 92.9297 38.7227 93.2344 36.5195H90.6445ZM87.7383 29.0664C89.5312 29.0664 90.6094 30.332 90.6094 32.418H84.7969C84.7969 30.3203 85.8984 29.0664 87.7383 29.0664ZM108.082 40V37.8203H104.086V22.2109H97.3008V24.3906H101.367V37.8203H97.1602V40H108.082ZM130.547 40.2109C132.293 40.2109 133.664 39.4844 134.285 38.207H134.531V40H137.121V31.2578C137.121 28.5156 135.316 26.957 132.141 26.957C129.258 26.957 127.184 28.4219 126.949 30.6367H129.621C129.902 29.6992 130.816 29.1602 132.07 29.1602C133.57 29.1602 134.426 29.9102 134.426 31.2344V32.3125L131.215 32.5C128.145 32.6875 126.48 34.0469 126.48 36.3438C126.48 38.6641 128.109 40.2109 130.547 40.2109ZM131.426 37.9844C130.055 37.9844 129.188 37.293 129.188 36.1797C129.188 35.043 130.02 34.3984 131.625 34.3047L134.426 34.1523V35.3242C134.426 36.8711 133.16 37.9844 131.426 37.9844ZM143.227 44.6055C146.062 44.6055 147.41 43.5273 148.523 40.293L153.105 27.168H150.211L147.07 37.4102H146.895L143.754 27.168H140.766L145.371 40.0938L145.195 40.668C144.797 41.875 144.105 42.3555 142.852 42.3555C142.664 42.3555 142.254 42.3438 142.137 42.3203V44.582C142.266 44.5938 142.781 44.6055 143.227 44.6055ZM164.824 36.5195C164.555 37.4688 163.465 38.0898 162.047 38.0898C160.184 38.0898 158.977 36.8242 158.977 34.8672V34.2461H167.438V32.6875C167.438 29.125 165.34 26.9102 161.965 26.9102C158.555 26.9102 156.293 29.1367 156.293 32.5V34.5039C156.293 38.1602 158.402 40.2578 162.059 40.2578C164.93 40.2578 167.109 38.7227 167.414 36.5195H164.824ZM161.918 29.0664C163.711 29.0664 164.789 30.332 164.789 32.418H158.977C158.977 30.3203 160.078 29.0664 161.918 29.0664Z"
    fill="#DC322F"/>
</svg>
